<svg width="314" height="297" viewBox="0 0 314 297" fill="none" xmlns="http://www.w3.org/2000/svg">
<path d="M313 6.27476C222 -19.2252 40.4 49.5748 52 172.775C55.2484 207.275 126.5 213.775 112 160.775C103.519 129.775 20.6 119.875 9 220.275C10.8333 238.275 24.9 278.575 66.5 295.775" stroke="#C7C7C7"/>
<circle cx="153" cy="28.2744" r="8" fill="url(#paint0_radial_1538_188)"/>
<circle cx="67" cy="107.274" r="8" fill="url(#paint1_radial_1538_188)"/>
<circle cx="12" cy="221.274" r="8" fill="url(#paint2_radial_1538_188)"/>
<path d="M1.18 103.274V96.2744H6.3V96.9044H1.91V99.1944H4.2C5.02667 99.1944 5.65333 99.3644 6.08 99.7044C6.51333 100.038 6.73 100.531 6.73 101.184C6.73 101.858 6.49667 102.374 6.03 102.734C5.57 103.094 4.90667 103.274 4.04 103.274H1.18ZM1.91 102.684H4.03C4.67667 102.684 5.16333 102.561 5.49 102.314C5.82333 102.061 5.99 101.694 5.99 101.214C5.99 100.261 5.33667 99.7844 4.03 99.7844H1.91V102.684ZM10.4259 103.324C9.91919 103.324 9.46253 103.211 9.05586 102.984C8.65586 102.751 8.33919 102.434 8.10586 102.034C7.87253 101.628 7.75586 101.164 7.75586 100.644C7.75586 100.118 7.87253 99.6544 8.10586 99.2544C8.33919 98.8544 8.65586 98.5411 9.05586 98.3144C9.45586 98.0877 9.91253 97.9744 10.4259 97.9744C10.9459 97.9744 11.4059 98.0877 11.8059 98.3144C12.2125 98.5411 12.5292 98.8544 12.7559 99.2544C12.9892 99.6544 13.1059 100.118 13.1059 100.644C13.1059 101.164 12.9892 101.628 12.7559 102.034C12.5292 102.434 12.2125 102.751 11.8059 102.984C11.3992 103.211 10.9392 103.324 10.4259 103.324ZM10.4259 102.694C10.8059 102.694 11.1425 102.611 11.4359 102.444C11.7292 102.271 11.9592 102.031 12.1259 101.724C12.2992 101.411 12.3859 101.051 12.3859 100.644C12.3859 100.231 12.2992 99.8711 12.1259 99.5644C11.9592 99.2577 11.7292 99.0211 11.4359 98.8544C11.1425 98.6811 10.8092 98.5944 10.4359 98.5944C10.0625 98.5944 9.72919 98.6811 9.43586 98.8544C9.14253 99.0211 8.90919 99.2577 8.73586 99.5644C8.56253 99.8711 8.47586 100.231 8.47586 100.644C8.47586 101.051 8.56253 101.411 8.73586 101.724C8.90919 102.031 9.14253 102.271 9.43586 102.444C9.72919 102.611 10.0592 102.694 10.4259 102.694ZM13.634 103.264L13.684 102.654C13.7307 102.661 13.774 102.671 13.814 102.684C13.8607 102.691 13.9007 102.694 13.934 102.694C14.1473 102.694 14.3173 102.614 14.444 102.454C14.5773 102.294 14.6773 102.081 14.744 101.814C14.8107 101.548 14.8573 101.248 14.884 100.914C14.9107 100.574 14.934 100.234 14.954 99.8944L15.044 98.0244H18.894V103.274H18.184V98.4344L18.364 98.6444H15.504L15.674 98.4244L15.594 99.9444C15.574 100.398 15.5373 100.831 15.484 101.244C15.4373 101.658 15.3607 102.021 15.254 102.334C15.154 102.648 15.014 102.894 14.834 103.074C14.654 103.248 14.424 103.334 14.144 103.334C14.064 103.334 13.9807 103.328 13.894 103.314C13.814 103.301 13.7273 103.284 13.634 103.264ZM23.1723 99.8744C23.8323 99.8811 24.3323 100.028 24.6723 100.314C25.019 100.601 25.1923 101.014 25.1923 101.554C25.1923 102.114 25.0057 102.544 24.6323 102.844C24.2657 103.144 23.7323 103.291 23.0323 103.284L20.9123 103.274V98.0244H21.6223V99.8544L23.1723 99.8744ZM22.9923 102.744C23.479 102.751 23.8457 102.654 24.0923 102.454C24.3457 102.248 24.4723 101.948 24.4723 101.554C24.4723 101.161 24.349 100.874 24.1023 100.694C23.8557 100.508 23.4857 100.411 22.9923 100.404L21.6223 100.384V102.724L22.9923 102.744ZM29.9971 102.654L29.8371 102.844V98.0244H30.5471V102.844L30.3571 102.654H33.2871L33.0971 102.844V98.0244H33.8071V103.274H26.5471V98.0244H27.2571V102.844L27.0771 102.654H29.9971ZM35.8245 103.274V98.0244H36.5345V102.194L40.0445 98.0244H40.6745V103.274H39.9645V99.0944L36.4645 103.274H35.8245ZM44.9592 103.324C44.4126 103.324 43.9326 103.211 43.5192 102.984C43.1059 102.751 42.7826 102.434 42.5492 102.034C42.3159 101.628 42.1992 101.164 42.1992 100.644C42.1992 100.124 42.3092 99.6644 42.5292 99.2644C42.7559 98.8644 43.0626 98.5511 43.4492 98.3244C43.8426 98.0911 44.2826 97.9744 44.7692 97.9744C45.2626 97.9744 45.6992 98.0877 46.0792 98.3144C46.4659 98.5344 46.7692 98.8477 46.9892 99.2544C47.2092 99.6544 47.3192 100.118 47.3192 100.644C47.3192 100.678 47.3159 100.714 47.3092 100.754C47.3092 100.788 47.3092 100.824 47.3092 100.864H42.7392V100.334H46.9292L46.6492 100.544C46.6492 100.164 46.5659 99.8277 46.3992 99.5344C46.2392 99.2344 46.0192 99.0011 45.7392 98.8344C45.4592 98.6677 45.1359 98.5844 44.7692 98.5844C44.4092 98.5844 44.0859 98.6677 43.7992 98.8344C43.5126 99.0011 43.2892 99.2344 43.1292 99.5344C42.9692 99.8344 42.8892 100.178 42.8892 100.564V100.674C42.8892 101.074 42.9759 101.428 43.1492 101.734C43.3292 102.034 43.5759 102.271 43.8892 102.444C44.2092 102.611 44.5726 102.694 44.9792 102.694C45.2992 102.694 45.5959 102.638 45.8692 102.524C46.1492 102.411 46.3892 102.238 46.5892 102.004L46.9892 102.464C46.7559 102.744 46.4626 102.958 46.1092 103.104C45.7626 103.251 45.3792 103.324 44.9592 103.324ZM1.01 115.274V110.024H3.33C3.92333 110.024 4.39 110.138 4.73 110.364C5.07667 110.591 5.25 110.924 5.25 111.364C5.25 111.791 5.08667 112.121 4.76 112.354C4.43333 112.581 4.00333 112.694 3.47 112.694L3.61 112.484C4.23667 112.484 4.69667 112.601 4.99 112.834C5.28333 113.068 5.43 113.404 5.43 113.844C5.43 114.298 5.26333 114.651 4.93 114.904C4.60333 115.151 4.09333 115.274 3.4 115.274H1.01ZM1.7 114.714H3.37C3.81667 114.714 4.15333 114.644 4.38 114.504C4.61333 114.358 4.73 114.124 4.73 113.804C4.73 113.484 4.62667 113.251 4.42 113.104C4.21333 112.958 3.88667 112.884 3.44 112.884H1.7V114.714ZM1.7 112.354H3.28C3.68667 112.354 3.99667 112.278 4.21 112.124C4.43 111.971 4.54 111.748 4.54 111.454C4.54 111.161 4.43 110.941 4.21 110.794C3.99667 110.648 3.68667 110.574 3.28 110.574H1.7V112.354ZM12.214 115.274V110.024H12.924V115.274H12.214ZM9.30398 111.874C9.96398 111.881 10.4673 112.028 10.814 112.314C11.1607 112.601 11.334 113.014 11.334 113.554C11.334 114.114 11.1473 114.544 10.774 114.844C10.4007 115.144 9.86732 115.291 9.17398 115.284L7.09398 115.274V110.024H7.80398V111.854L9.30398 111.874ZM9.12398 114.744C9.61732 114.751 9.98732 114.654 10.234 114.454C10.4873 114.248 10.614 113.948 10.614 113.554C10.614 113.161 10.4907 112.874 10.244 112.694C9.99732 112.508 9.62398 112.411 9.12398 112.404L7.80398 112.384V114.724L9.12398 114.744ZM14.9455 115.274V110.024H15.6555V114.194L19.1655 110.024H19.7955V115.274H19.0855V111.094L15.5855 115.274H14.9455ZM21.8303 115.274V110.024H25.5503V110.644H22.3603L22.5403 110.464V115.274H21.8303ZM29.2864 115.324C28.8331 115.324 28.4231 115.221 28.0564 115.014C27.6897 114.801 27.3964 114.498 27.1764 114.104C26.9631 113.704 26.8564 113.218 26.8564 112.644C26.8564 112.071 26.9631 111.588 27.1764 111.194C27.3897 110.794 27.6797 110.491 28.0464 110.284C28.4131 110.078 28.8264 109.974 29.2864 109.974C29.7864 109.974 30.2331 110.088 30.6264 110.314C31.0264 110.534 31.3397 110.848 31.5664 111.254C31.7931 111.654 31.9064 112.118 31.9064 112.644C31.9064 113.178 31.7931 113.644 31.5664 114.044C31.3397 114.444 31.0264 114.758 30.6264 114.984C30.2331 115.211 29.7864 115.324 29.2864 115.324ZM26.5764 117.214V110.024H27.2564V111.604L27.1864 112.654L27.2864 113.714V117.214H26.5764ZM29.2364 114.694C29.6097 114.694 29.9431 114.611 30.2364 114.444C30.5297 114.271 30.7631 114.031 30.9364 113.724C31.1097 113.411 31.1964 113.051 31.1964 112.644C31.1964 112.238 31.1097 111.881 30.9364 111.574C30.7631 111.268 30.5297 111.028 30.2364 110.854C29.9431 110.681 29.6097 110.594 29.2364 110.594C28.8631 110.594 28.5264 110.681 28.2264 110.854C27.9331 111.028 27.6997 111.268 27.5264 111.574C27.3597 111.881 27.2764 112.238 27.2764 112.644C27.2764 113.051 27.3597 113.411 27.5264 113.724C27.6997 114.031 27.9331 114.271 28.2264 114.444C28.5264 114.611 28.8631 114.694 29.2364 114.694ZM38.5519 115.274V110.024H39.2619V115.274H38.5519ZM35.6419 111.874C36.3019 111.881 36.8052 112.028 37.1519 112.314C37.4985 112.601 37.6719 113.014 37.6719 113.554C37.6719 114.114 37.4852 114.544 37.1119 114.844C36.7385 115.144 36.2052 115.291 35.5119 115.284L33.4319 115.274V110.024H34.1419V111.854L35.6419 111.874ZM35.4619 114.744C35.9552 114.751 36.3252 114.654 36.5719 114.454C36.8252 114.248 36.9519 113.948 36.9519 113.554C36.9519 113.161 36.8285 112.874 36.5819 112.694C36.3352 112.508 35.9619 112.411 35.4619 112.404L34.1419 112.384V114.724L35.4619 114.744ZM44.7334 114.654L44.5734 114.844V110.024H45.2834V114.844L45.0934 114.654H48.0234L47.8334 114.844V110.024H48.5434V115.274H41.2834V110.024H41.9934V114.844L41.8134 114.654H44.7334ZM50.5608 115.274V110.024H51.2708V114.194L54.7808 110.024H55.4108V115.274H54.7008V111.094L51.2008 115.274H50.5608Z" fill="black"/>
<path d="M31.18 223.274V216.274H36.3V216.904H31.91V219.194H34.2C35.0267 219.194 35.6533 219.364 36.08 219.704C36.5133 220.038 36.73 220.531 36.73 221.184C36.73 221.858 36.4967 222.374 36.03 222.734C35.57 223.094 34.9067 223.274 34.04 223.274H31.18ZM31.91 222.684H34.03C34.6767 222.684 35.1633 222.561 35.49 222.314C35.8233 222.061 35.99 221.694 35.99 221.214C35.99 220.261 35.3367 219.784 34.03 219.784H31.91V222.684ZM43.3859 223.274V218.024H44.0959V223.274H43.3859ZM40.4759 219.874C41.1359 219.881 41.6392 220.028 41.9859 220.314C42.3325 220.601 42.5059 221.014 42.5059 221.554C42.5059 222.114 42.3192 222.544 41.9459 222.844C41.5725 223.144 41.0392 223.291 40.3459 223.284L38.2659 223.274V218.024H38.9759V219.854L40.4759 219.874ZM40.2959 222.744C40.7892 222.751 41.1592 222.654 41.4059 222.454C41.6592 222.248 41.7859 221.948 41.7859 221.554C41.7859 221.161 41.6625 220.874 41.4159 220.694C41.1692 220.508 40.7959 220.411 40.2959 220.404L38.9759 220.384V222.724L40.2959 222.744ZM48.3174 223.324C47.7974 223.324 47.3308 223.211 46.9174 222.984C46.5108 222.751 46.1908 222.434 45.9574 222.034C45.7241 221.628 45.6074 221.164 45.6074 220.644C45.6074 220.118 45.7241 219.654 45.9574 219.254C46.1908 218.854 46.5108 218.541 46.9174 218.314C47.3308 218.088 47.7974 217.974 48.3174 217.974C48.7641 217.974 49.1674 218.061 49.5274 218.234C49.8874 218.408 50.1708 218.668 50.3774 219.014L49.8474 219.374C49.6674 219.108 49.4441 218.911 49.1774 218.784C48.9108 218.658 48.6208 218.594 48.3074 218.594C47.9341 218.594 47.5974 218.681 47.2974 218.854C46.9974 219.021 46.7608 219.258 46.5874 219.564C46.4141 219.871 46.3274 220.231 46.3274 220.644C46.3274 221.058 46.4141 221.418 46.5874 221.724C46.7608 222.031 46.9974 222.271 47.2974 222.444C47.5974 222.611 47.9341 222.694 48.3074 222.694C48.6208 222.694 48.9108 222.631 49.1774 222.504C49.4441 222.378 49.6674 222.184 49.8474 221.924L50.3774 222.284C50.1708 222.624 49.8874 222.884 49.5274 223.064C49.1674 223.238 48.7641 223.324 48.3174 223.324ZM52.6545 223.274V218.454L52.8345 218.644H50.6645V218.024H55.3545V218.644H53.1845L53.3645 218.454V223.274H52.6545ZM59.0911 223.324C58.6378 223.324 58.2278 223.221 57.8611 223.014C57.4944 222.801 57.2011 222.498 56.9811 222.104C56.7678 221.704 56.6611 221.218 56.6611 220.644C56.6611 220.071 56.7678 219.588 56.9811 219.194C57.1944 218.794 57.4844 218.491 57.8511 218.284C58.2178 218.078 58.6311 217.974 59.0911 217.974C59.5911 217.974 60.0378 218.088 60.4311 218.314C60.8311 218.534 61.1444 218.848 61.3711 219.254C61.5978 219.654 61.7111 220.118 61.7111 220.644C61.7111 221.178 61.5978 221.644 61.3711 222.044C61.1444 222.444 60.8311 222.758 60.4311 222.984C60.0378 223.211 59.5911 223.324 59.0911 223.324ZM56.3811 225.214V218.024H57.0611V219.604L56.9911 220.654L57.0911 221.714V225.214H56.3811ZM59.0411 222.694C59.4144 222.694 59.7478 222.611 60.0411 222.444C60.3344 222.271 60.5678 222.031 60.7411 221.724C60.9144 221.411 61.0011 221.051 61.0011 220.644C61.0011 220.238 60.9144 219.881 60.7411 219.574C60.5678 219.268 60.3344 219.028 60.0411 218.854C59.7478 218.681 59.4144 218.594 59.0411 218.594C58.6678 218.594 58.3311 218.681 58.0311 218.854C57.7378 219.028 57.5044 219.268 57.3311 219.574C57.1644 219.881 57.0811 220.238 57.0811 220.644C57.0811 221.051 57.1644 221.411 57.3311 221.724C57.5044 222.031 57.7378 222.271 58.0311 222.444C58.3311 222.611 58.6678 222.694 59.0411 222.694ZM68.3566 223.274V218.024H69.0666V223.274H68.3566ZM65.4466 219.874C66.1066 219.881 66.6099 220.028 66.9566 220.314C67.3032 220.601 67.4766 221.014 67.4766 221.554C67.4766 222.114 67.2899 222.544 66.9166 222.844C66.5432 223.144 66.0099 223.291 65.3166 223.284L63.2366 223.274V218.024H63.9466V219.854L65.4466 219.874ZM65.2666 222.744C65.7599 222.751 66.1299 222.654 66.3766 222.454C66.6299 222.248 66.7566 221.948 66.7566 221.554C66.7566 221.161 66.6332 220.874 66.3866 220.694C66.1399 220.508 65.7666 220.411 65.2666 220.404L63.9466 220.384V222.724L65.2666 222.744ZM73.3381 223.324C72.7915 223.324 72.3115 223.211 71.8981 222.984C71.4848 222.751 71.1615 222.434 70.9281 222.034C70.6948 221.628 70.5781 221.164 70.5781 220.644C70.5781 220.124 70.6881 219.664 70.9081 219.264C71.1348 218.864 71.4415 218.551 71.8281 218.324C72.2215 218.091 72.6615 217.974 73.1481 217.974C73.6415 217.974 74.0781 218.088 74.4581 218.314C74.8448 218.534 75.1481 218.848 75.3681 219.254C75.5881 219.654 75.6981 220.118 75.6981 220.644C75.6981 220.678 75.6948 220.714 75.6881 220.754C75.6881 220.788 75.6881 220.824 75.6881 220.864H71.1181V220.334H75.3081L75.0281 220.544C75.0281 220.164 74.9448 219.828 74.7781 219.534C74.6181 219.234 74.3981 219.001 74.1181 218.834C73.8381 218.668 73.5148 218.584 73.1481 218.584C72.7881 218.584 72.4648 218.668 72.1781 218.834C71.8915 219.001 71.6681 219.234 71.5081 219.534C71.3481 219.834 71.2681 220.178 71.2681 220.564V220.674C71.2681 221.074 71.3548 221.428 71.5281 221.734C71.7081 222.034 71.9548 222.271 72.2681 222.444C72.5881 222.611 72.9515 222.694 73.3581 222.694C73.6781 222.694 73.9748 222.638 74.2481 222.524C74.5281 222.411 74.7681 222.238 74.9681 222.004L75.3681 222.464C75.1348 222.744 74.8415 222.958 74.4881 223.104C74.1415 223.251 73.7581 223.324 73.3381 223.324ZM31.01 235.274V230.024H33.33C33.9233 230.024 34.39 230.138 34.73 230.364C35.0767 230.591 35.25 230.924 35.25 231.364C35.25 231.791 35.0867 232.121 34.76 232.354C34.4333 232.581 34.0033 232.694 33.47 232.694L33.61 232.484C34.2367 232.484 34.6967 232.601 34.99 232.834C35.2833 233.068 35.43 233.404 35.43 233.844C35.43 234.298 35.2633 234.651 34.93 234.904C34.6033 235.151 34.0933 235.274 33.4 235.274H31.01ZM31.7 234.714H33.37C33.8167 234.714 34.1533 234.644 34.38 234.504C34.6133 234.358 34.73 234.124 34.73 233.804C34.73 233.484 34.6267 233.251 34.42 233.104C34.2133 232.958 33.8867 232.884 33.44 232.884H31.7V234.714ZM31.7 232.354H33.28C33.6867 232.354 33.9967 232.278 34.21 232.124C34.43 231.971 34.54 231.748 34.54 231.454C34.54 231.161 34.43 230.941 34.21 230.794C33.9967 230.648 33.6867 230.574 33.28 230.574H31.7V232.354ZM42.214 235.274V230.024H42.924V235.274H42.214ZM39.304 231.874C39.964 231.881 40.4673 232.028 40.814 232.314C41.1607 232.601 41.334 233.014 41.334 233.554C41.334 234.114 41.1473 234.544 40.774 234.844C40.4007 235.144 39.8673 235.291 39.174 235.284L37.094 235.274V230.024H37.804V231.854L39.304 231.874ZM39.124 234.744C39.6173 234.751 39.9873 234.654 40.234 234.454C40.4873 234.248 40.614 233.948 40.614 233.554C40.614 233.161 40.4907 232.874 40.244 232.694C39.9973 232.508 39.624 232.411 39.124 232.404L37.804 232.384V234.724L39.124 234.744ZM44.9455 235.274V230.024H49.6655V235.274H48.9555V230.454L49.1355 230.644H45.4755L45.6555 230.454V235.274H44.9455ZM50.7238 235.264L50.7738 234.654C50.8205 234.661 50.8638 234.671 50.9038 234.684C50.9505 234.691 50.9905 234.694 51.0238 234.694C51.2372 234.694 51.4072 234.614 51.5338 234.454C51.6672 234.294 51.7672 234.081 51.8338 233.814C51.9005 233.548 51.9472 233.248 51.9738 232.914C52.0005 232.574 52.0238 232.234 52.0438 231.894L52.1338 230.024H55.9838V235.274H55.2738V230.434L55.4538 230.644H52.5938L52.7638 230.424L52.6838 231.944C52.6638 232.398 52.6272 232.831 52.5738 233.244C52.5272 233.658 52.4505 234.021 52.3438 234.334C52.2438 234.648 52.1038 234.894 51.9238 235.074C51.7438 235.248 51.5138 235.334 51.2338 235.334C51.1538 235.334 51.0705 235.328 50.9838 235.314C50.9038 235.301 50.8172 235.284 50.7238 235.264ZM61.2622 235.274V234.114L61.2322 233.924V231.984C61.2322 231.538 61.1055 231.194 60.8522 230.954C60.6055 230.714 60.2355 230.594 59.7422 230.594C59.4022 230.594 59.0789 230.651 58.7722 230.764C58.4655 230.878 58.2055 231.028 57.9922 231.214L57.6722 230.684C57.9389 230.458 58.2589 230.284 58.6322 230.164C59.0055 230.038 59.3989 229.974 59.8122 229.974C60.4922 229.974 61.0155 230.144 61.3822 230.484C61.7555 230.818 61.9422 231.328 61.9422 232.014V235.274H61.2622ZM59.4522 235.324C59.0589 235.324 58.7155 235.261 58.4222 235.134C58.1355 235.001 57.9155 234.821 57.7622 234.594C57.6089 234.361 57.5322 234.094 57.5322 233.794C57.5322 233.521 57.5955 233.274 57.7222 233.054C57.8555 232.828 58.0689 232.648 58.3622 232.514C58.6622 232.374 59.0622 232.304 59.5622 232.304H61.3722V232.834H59.5822C59.0755 232.834 58.7222 232.924 58.5222 233.104C58.3289 233.284 58.2322 233.508 58.2322 233.774C58.2322 234.074 58.3489 234.314 58.5822 234.494C58.8155 234.674 59.1422 234.764 59.5622 234.764C59.9622 234.764 60.3055 234.674 60.5922 234.494C60.8855 234.308 61.0989 234.041 61.2322 233.694L61.3922 234.184C61.2589 234.531 61.0255 234.808 60.6922 235.014C60.3655 235.221 59.9522 235.324 59.4522 235.324ZM64.8323 235.274V230.454L65.0123 230.644H62.8423V230.024H67.5323V230.644H65.3623L65.5423 230.454V235.274H64.8323ZM73.6788 235.274V230.024H74.3888V235.274H73.6788ZM70.7688 231.874C71.4288 231.881 71.9322 232.028 72.2788 232.314C72.6255 232.601 72.7988 233.014 72.7988 233.554C72.7988 234.114 72.6122 234.544 72.2388 234.844C71.8655 235.144 71.3322 235.291 70.6388 235.284L68.5588 235.274V230.024H69.2688V231.854L70.7688 231.874ZM70.5888 234.744C71.0822 234.751 71.4522 234.654 71.6988 234.454C71.9522 234.248 72.0788 233.948 72.0788 233.554C72.0788 233.161 71.9555 232.874 71.7088 232.694C71.4622 232.508 71.0888 232.411 70.5888 232.404L69.2688 232.384V234.724L70.5888 234.744Z" fill="black"/>
<path d="M81.18 18.2744V11.2744H84.09C84.83 11.2744 85.41 11.4277 85.83 11.7344C86.2567 12.0344 86.47 12.4777 86.47 13.0644C86.47 13.6444 86.2667 14.0844 85.86 14.3844C85.4533 14.6777 84.92 14.8244 84.26 14.8244L84.43 14.5744C85.21 14.5744 85.8033 14.7277 86.21 15.0344C86.6167 15.3411 86.82 15.7911 86.82 16.3844C86.82 16.9844 86.6067 17.4511 86.18 17.7844C85.76 18.1111 85.1267 18.2744 84.28 18.2744H81.18ZM81.91 17.6844H84.28C84.8733 17.6844 85.3233 17.5744 85.63 17.3544C85.9367 17.1344 86.09 16.7944 86.09 16.3344C86.09 15.8811 85.9367 15.5477 85.63 15.3344C85.3233 15.1211 84.8733 15.0144 84.28 15.0144H81.91V17.6844ZM81.91 14.4444H84.05C84.59 14.4444 85.0033 14.3377 85.29 14.1244C85.5833 13.9044 85.73 13.5811 85.73 13.1544C85.73 12.7277 85.5833 12.4077 85.29 12.1944C85.0033 11.9744 84.59 11.8644 84.05 11.8644H81.91V14.4444ZM90.7002 18.3244C90.1802 18.3244 89.7136 18.2111 89.3002 17.9844C88.8936 17.7511 88.5736 17.4344 88.3402 17.0344C88.1069 16.6277 87.9902 16.1644 87.9902 15.6444C87.9902 15.1177 88.1069 14.6544 88.3402 14.2544C88.5736 13.8544 88.8936 13.5411 89.3002 13.3144C89.7136 13.0877 90.1802 12.9744 90.7002 12.9744C91.1469 12.9744 91.5502 13.0611 91.9102 13.2344C92.2702 13.4077 92.5536 13.6677 92.7602 14.0144L92.2302 14.3744C92.0502 14.1077 91.8269 13.9111 91.5602 13.7844C91.2936 13.6577 91.0036 13.5944 90.6902 13.5944C90.3169 13.5944 89.9802 13.6811 89.6802 13.8544C89.3802 14.0211 89.1436 14.2577 88.9702 14.5644C88.7969 14.8711 88.7102 15.2311 88.7102 15.6444C88.7102 16.0577 88.7969 16.4177 88.9702 16.7244C89.1436 17.0311 89.3802 17.2711 89.6802 17.4444C89.9802 17.6111 90.3169 17.6944 90.6902 17.6944C91.0036 17.6944 91.2936 17.6311 91.5602 17.5044C91.8269 17.3777 92.0502 17.1844 92.2302 16.9244L92.7602 17.2844C92.5536 17.6244 92.2702 17.8844 91.9102 18.0644C91.5502 18.2377 91.1469 18.3244 90.7002 18.3244ZM96.2971 18.3244C95.7504 18.3244 95.2704 18.2111 94.8571 17.9844C94.4438 17.7511 94.1204 17.4344 93.8871 17.0344C93.6538 16.6277 93.5371 16.1644 93.5371 15.6444C93.5371 15.1244 93.6471 14.6644 93.8671 14.2644C94.0938 13.8644 94.4004 13.5511 94.7871 13.3244C95.1804 13.0911 95.6204 12.9744 96.1071 12.9744C96.6004 12.9744 97.0371 13.0877 97.4171 13.3144C97.8038 13.5344 98.1071 13.8477 98.3271 14.2544C98.5471 14.6544 98.6571 15.1177 98.6571 15.6444C98.6571 15.6777 98.6538 15.7144 98.6471 15.7544C98.6471 15.7877 98.6471 15.8244 98.6471 15.8644H94.0771V15.3344H98.2671L97.9871 15.5444C97.9871 15.1644 97.9038 14.8277 97.7371 14.5344C97.5771 14.2344 97.3571 14.0011 97.0771 13.8344C96.7971 13.6677 96.4738 13.5844 96.1071 13.5844C95.7471 13.5844 95.4238 13.6677 95.1371 13.8344C94.8504 14.0011 94.6271 14.2344 94.4671 14.5344C94.3071 14.8344 94.2271 15.1777 94.2271 15.5644V15.6744C94.2271 16.0744 94.3138 16.4277 94.4871 16.7344C94.6671 17.0344 94.9138 17.2711 95.2271 17.4444C95.5471 17.6111 95.9104 17.6944 96.3171 17.6944C96.6371 17.6944 96.9338 17.6377 97.2071 17.5244C97.4871 17.4111 97.7271 17.2377 97.9271 17.0044L98.3271 17.4644C98.0938 17.7444 97.8004 17.9577 97.4471 18.1044C97.1004 18.2511 96.7171 18.3244 96.2971 18.3244ZM102.846 18.2744V13.0244H103.566L105.946 17.0544H105.646L108.066 13.0244H108.726V18.2744H108.076V13.8344L108.206 13.8944L105.946 17.6344H105.626L103.346 13.8544L103.496 13.8244V18.2744H102.846ZM114.006 18.2744V17.1144L113.976 16.9244V14.9844C113.976 14.5377 113.85 14.1944 113.596 13.9544C113.35 13.7144 112.98 13.5944 112.486 13.5944C112.146 13.5944 111.823 13.6511 111.516 13.7644C111.21 13.8777 110.95 14.0277 110.736 14.2144L110.416 13.6844C110.683 13.4577 111.003 13.2844 111.376 13.1644C111.75 13.0377 112.143 12.9744 112.556 12.9744C113.236 12.9744 113.76 13.1444 114.126 13.4844C114.5 13.8177 114.686 14.3277 114.686 15.0144V18.2744H114.006ZM112.196 18.3244C111.803 18.3244 111.46 18.2611 111.166 18.1344C110.88 18.0011 110.66 17.8211 110.506 17.5944C110.353 17.3611 110.276 17.0944 110.276 16.7944C110.276 16.5211 110.34 16.2744 110.466 16.0544C110.6 15.8277 110.813 15.6477 111.106 15.5144C111.406 15.3744 111.806 15.3044 112.306 15.3044H114.116V15.8344H112.326C111.82 15.8344 111.466 15.9244 111.266 16.1044C111.073 16.2844 110.976 16.5077 110.976 16.7744C110.976 17.0744 111.093 17.3144 111.326 17.4944C111.56 17.6744 111.886 17.7644 112.306 17.7644C112.706 17.7644 113.05 17.6744 113.336 17.4944C113.63 17.3077 113.843 17.0411 113.976 16.6944L114.136 17.1844C114.003 17.5311 113.77 17.8077 113.436 18.0144C113.11 18.2211 112.696 18.3244 112.196 18.3244ZM117.576 18.2744V13.4544L117.756 13.6444H115.586V13.0244H120.276V13.6444H118.106L118.286 13.4544V18.2744H117.576ZM124.623 16.0544C124.316 16.1877 124.006 16.2944 123.693 16.3744C123.386 16.4477 123.08 16.4844 122.773 16.4844C122.153 16.4844 121.663 16.3444 121.303 16.0644C120.943 15.7777 120.763 15.3377 120.763 14.7444V13.0244H121.463V14.7044C121.463 15.1044 121.593 15.4044 121.853 15.6044C122.113 15.8044 122.463 15.9044 122.903 15.9044C123.17 15.9044 123.45 15.8711 123.743 15.8044C124.036 15.7311 124.333 15.6277 124.633 15.4944L124.623 16.0544ZM124.563 18.2744V13.0244H125.273V18.2744H124.563ZM127.289 18.2744V13.0244H127.999V17.1944L131.509 13.0244H132.139V18.2744H131.429V14.0944L127.929 18.2744H127.289ZM81.01 30.2744V25.0244H85.73V30.2744H85.02V25.4544L85.2 25.6444H81.54L81.72 25.4544V30.2744H81.01ZM89.9083 30.3244C89.4016 30.3244 88.9449 30.2111 88.5383 29.9844C88.1383 29.7511 87.8216 29.4344 87.5883 29.0344C87.3549 28.6277 87.2383 28.1644 87.2383 27.6444C87.2383 27.1177 87.3549 26.6544 87.5883 26.2544C87.8216 25.8544 88.1383 25.5411 88.5383 25.3144C88.9383 25.0877 89.3949 24.9744 89.9083 24.9744C90.4283 24.9744 90.8883 25.0877 91.2883 25.3144C91.6949 25.5411 92.0116 25.8544 92.2383 26.2544C92.4716 26.6544 92.5883 27.1177 92.5883 27.6444C92.5883 28.1644 92.4716 28.6277 92.2383 29.0344C92.0116 29.4344 91.6949 29.7511 91.2883 29.9844C90.8816 30.2111 90.4216 30.3244 89.9083 30.3244ZM89.9083 29.6944C90.2883 29.6944 90.6249 29.6111 90.9183 29.4444C91.2116 29.2711 91.4416 29.0311 91.6083 28.7244C91.7816 28.4111 91.8683 28.0511 91.8683 27.6444C91.8683 27.2311 91.7816 26.8711 91.6083 26.5644C91.4416 26.2577 91.2116 26.0211 90.9183 25.8544C90.6249 25.6811 90.2916 25.5944 89.9183 25.5944C89.5449 25.5944 89.2116 25.6811 88.9183 25.8544C88.6249 26.0211 88.3916 26.2577 88.2183 26.5644C88.0449 26.8711 87.9583 27.2311 87.9583 27.6444C87.9583 28.0511 88.0449 28.4111 88.2183 28.7244C88.3916 29.0311 88.6249 29.2711 88.9183 29.4444C89.2116 29.6111 89.5416 29.6944 89.9083 29.6944ZM97.6764 29.9344V25.6444H95.1464L95.0864 26.8144C95.0731 27.1677 95.0497 27.5144 95.0164 27.8544C94.9897 28.1944 94.9397 28.5077 94.8664 28.7944C94.7997 29.0744 94.7031 29.3044 94.5764 29.4844C94.4497 29.6577 94.2864 29.7577 94.0864 29.7844L93.3764 29.6544C93.5831 29.6611 93.7531 29.5877 93.8864 29.4344C94.0197 29.2744 94.1231 29.0577 94.1964 28.7844C94.2697 28.5111 94.3231 28.2011 94.3564 27.8544C94.3897 27.5011 94.4164 27.1411 94.4364 26.7744L94.5064 25.0244H98.3864V29.9344H97.6764ZM93.1564 31.5444V29.6544H99.2064V31.5444H98.5364V30.2744H93.8264V31.5444H93.1564ZM105.917 30.3244C105.464 30.3244 105.054 30.2211 104.687 30.0144C104.321 29.8011 104.027 29.4977 103.807 29.1044C103.594 28.7044 103.487 28.2177 103.487 27.6444C103.487 27.0711 103.594 26.5877 103.807 26.1944C104.021 25.7944 104.311 25.4911 104.677 25.2844C105.044 25.0777 105.457 24.9744 105.917 24.9744C106.417 24.9744 106.864 25.0877 107.257 25.3144C107.657 25.5344 107.971 25.8477 108.197 26.2544C108.424 26.6544 108.537 27.1177 108.537 27.6444C108.537 28.1777 108.424 28.6444 108.197 29.0444C107.971 29.4444 107.657 29.7577 107.257 29.9844C106.864 30.2111 106.417 30.3244 105.917 30.3244ZM103.207 32.2144V25.0244H103.887V26.6044L103.817 27.6544L103.917 28.7144V32.2144H103.207ZM105.867 29.6944C106.241 29.6944 106.574 29.6111 106.867 29.4444C107.161 29.2711 107.394 29.0311 107.567 28.7244C107.741 28.4111 107.827 28.0511 107.827 27.6444C107.827 27.2377 107.741 26.8811 107.567 26.5744C107.394 26.2677 107.161 26.0277 106.867 25.8544C106.574 25.6811 106.241 25.5944 105.867 25.5944C105.494 25.5944 105.157 25.6811 104.857 25.8544C104.564 26.0277 104.331 26.2677 104.157 26.5744C103.991 26.8811 103.907 27.2377 103.907 27.6444C103.907 28.0511 103.991 28.4111 104.157 28.7244C104.331 29.0311 104.564 29.2711 104.857 29.4444C105.157 29.6111 105.494 29.6944 105.867 29.6944ZM110.006 32.2644C109.76 32.2644 109.523 32.2244 109.296 32.1444C109.076 32.0644 108.886 31.9444 108.726 31.7844L109.056 31.2544C109.19 31.3811 109.333 31.4777 109.486 31.5444C109.646 31.6177 109.823 31.6544 110.016 31.6544C110.25 31.6544 110.45 31.5877 110.616 31.4544C110.79 31.3277 110.953 31.1011 111.106 30.7744L111.446 30.0044L111.526 29.8944L113.686 25.0244H114.386L111.756 30.9044C111.61 31.2444 111.446 31.5144 111.266 31.7144C111.093 31.9144 110.903 32.0544 110.696 32.1344C110.49 32.2211 110.26 32.2644 110.006 32.2644ZM111.406 30.4244L108.986 25.0244H109.726L111.866 29.8444L111.406 30.4244ZM119.342 30.2744L117.182 27.6744L117.772 27.3244L120.182 30.2744H119.342ZM115.492 30.2744V25.0244H116.202V30.2744H115.492ZM115.982 27.9344V27.3244H117.672V27.9344H115.982ZM117.832 27.7244L117.172 27.6244L119.262 25.0244H120.032L117.832 27.7244ZM123.277 30.3244C122.771 30.3244 122.314 30.2111 121.907 29.9844C121.507 29.7511 121.191 29.4344 120.957 29.0344C120.724 28.6277 120.607 28.1644 120.607 27.6444C120.607 27.1177 120.724 26.6544 120.957 26.2544C121.191 25.8544 121.507 25.5411 121.907 25.3144C122.307 25.0877 122.764 24.9744 123.277 24.9744C123.797 24.9744 124.257 25.0877 124.657 25.3144C125.064 25.5411 125.381 25.8544 125.607 26.2544C125.841 26.6544 125.957 27.1177 125.957 27.6444C125.957 28.1644 125.841 28.6277 125.607 29.0344C125.381 29.4344 125.064 29.7511 124.657 29.9844C124.251 30.2111 123.791 30.3244 123.277 30.3244ZM123.277 29.6944C123.657 29.6944 123.994 29.6111 124.287 29.4444C124.581 29.2711 124.811 29.0311 124.977 28.7244C125.151 28.4111 125.237 28.0511 125.237 27.6444C125.237 27.2311 125.151 26.8711 124.977 26.5644C124.811 26.2577 124.581 26.0211 124.287 25.8544C123.994 25.6811 123.661 25.5944 123.287 25.5944C122.914 25.5944 122.581 25.6811 122.287 25.8544C121.994 26.0211 121.761 26.2577 121.587 26.5644C121.414 26.8711 121.327 27.2311 121.327 27.6444C121.327 28.0511 121.414 28.4111 121.587 28.7244C121.761 29.0311 121.994 29.2711 122.287 29.4444C122.581 29.6111 122.911 29.6944 123.277 29.6944ZM127.475 30.2744V25.0244H128.185V29.1944L131.695 25.0244H132.325V30.2744H131.615V26.0944L128.115 30.2744H127.475ZM129.855 24.2644C129.415 24.2644 129.058 24.1544 128.785 23.9344C128.518 23.7077 128.378 23.3844 128.365 22.9644H128.875C128.882 23.2311 128.975 23.4411 129.155 23.5944C129.335 23.7477 129.568 23.8244 129.855 23.8244C130.142 23.8244 130.375 23.7477 130.555 23.5944C130.742 23.4411 130.838 23.2311 130.845 22.9644H131.355C131.348 23.3844 131.208 23.7077 130.935 23.9344C130.662 24.1544 130.302 24.2644 129.855 24.2644Z" fill="black"/>
<defs>
<radialGradient id="paint0_radial_1538_188" cx="0" cy="0" r="1" gradientUnits="userSpaceOnUse" gradientTransform="translate(151.4 25.7144) rotate(81.3844) scale(10.6805)">
<stop offset="0.388542" stop-color="#FFE7D9"/>
<stop offset="1" stop-color="#FF6A13"/>
</radialGradient>
<radialGradient id="paint1_radial_1538_188" cx="0" cy="0" r="1" gradientUnits="userSpaceOnUse" gradientTransform="translate(65.4 104.714) rotate(81.3844) scale(10.6805)">
<stop offset="0.388542" stop-color="#FFE7D9"/>
<stop offset="1" stop-color="#FF6A13"/>
</radialGradient>
<radialGradient id="paint2_radial_1538_188" cx="0" cy="0" r="1" gradientUnits="userSpaceOnUse" gradientTransform="translate(10.4 218.714) rotate(81.3844) scale(10.6805)">
<stop offset="0.388542" stop-color="#FFE7D9"/>
<stop offset="1" stop-color="#FF6A13"/>
</radialGradient>
</defs>
</svg>
